<svg width="120" height="65" viewBox="0 0 120 65" fill="none" xmlns="http://www.w3.org/2000/svg">
<g clip-path="url(#clip0_10262_14201)">
<path d="M3.72427 49.6324C4.63684 49.6324 5.43431 49.8091 6.11668 50.1627C6.80727 50.5079 7.33755 51.0094 7.70751 51.6672C8.08569 52.3166 8.27478 53.0771 8.27478 53.9486C8.27478 54.82 8.08569 55.5764 7.70751 56.2177C7.33755 56.8589 6.80727 57.3522 6.11668 57.6975C5.43431 58.0346 4.63684 58.2031 3.72427 58.2031H0.924901V49.6324H3.72427ZM3.72427 57.0562C4.72727 57.0562 5.49597 56.7849 6.03036 56.2423C6.56474 55.6997 6.83194 54.9351 6.83194 53.9486C6.83194 52.9538 6.56474 52.1769 6.03036 51.6178C5.49597 51.0588 4.72727 50.7793 3.72427 50.7793H2.33075V57.0562H3.72427ZM9.19949 54.7748C9.19949 54.0925 9.33925 53.4882 9.61878 52.962C9.90653 52.4359 10.2929 52.0289 10.778 51.7411C11.2713 51.4452 11.8139 51.2972 12.4058 51.2972C12.9402 51.2972 13.4047 51.4041 13.7993 51.6178C14.2022 51.8234 14.5228 52.0823 14.7612 52.3947V51.4082H16.1794V58.2031H14.7612V57.1919C14.5228 57.5125 14.1981 57.7797 13.787 57.9935C13.3759 58.2072 12.9073 58.3141 12.3812 58.3141C11.7974 58.3141 11.263 58.1661 10.778 57.8702C10.2929 57.566 9.90653 57.1467 9.61878 56.6123C9.33925 56.0697 9.19949 55.4572 9.19949 54.7748ZM14.7612 54.7995C14.7612 54.3309 14.6626 53.9239 14.4653 53.5786C14.2762 53.2333 14.0254 52.9702 13.713 52.7894C13.4006 52.6085 13.0635 52.5181 12.7018 52.5181C12.34 52.5181 12.003 52.6085 11.6906 52.7894C11.3781 52.962 11.1233 53.221 10.926 53.5663C10.7369 53.9034 10.6423 54.3062 10.6423 54.7748C10.6423 55.2434 10.7369 55.6545 10.926 56.008C11.1233 56.3615 11.3781 56.6328 11.6906 56.8219C12.0112 57.0028 12.3483 57.0932 12.7018 57.0932C13.0635 57.0932 13.4006 57.0028 13.713 56.8219C14.0254 56.6411 14.2762 56.378 14.4653 56.0327C14.6626 55.6792 14.7612 55.2681 14.7612 54.7995ZM19.6661 52.5551V56.3163C19.6661 56.5712 19.7236 56.7562 19.8387 56.8713C19.9621 56.9781 20.1676 57.0316 20.4553 57.0316H21.3186V58.2031H20.2087C19.5757 58.2031 19.0906 58.0551 18.7535 57.7592C18.4165 57.4632 18.2479 56.9823 18.2479 56.3163V52.5551H17.4463V51.4082H18.2479V49.7187H19.6661V51.4082H21.3186V52.5551H19.6661ZM22.1457 54.7748C22.1457 54.0925 22.2855 53.4882 22.565 52.962C22.8527 52.4359 23.2391 52.0289 23.7242 51.7411C24.2175 51.4452 24.7601 51.2972 25.352 51.2972C25.8864 51.2972 26.3509 51.4041 26.7455 51.6178C27.1484 51.8234 27.469 52.0823 27.7074 52.3947V51.4082H29.1256V58.2031H27.7074V57.1919C27.469 57.5125 27.1443 57.7797 26.7332 57.9935C26.3221 58.2072 25.8535 58.3141 25.3274 58.3141C24.7436 58.3141 24.2093 58.1661 23.7242 57.8702C23.2391 57.566 22.8527 57.1467 22.565 56.6123C22.2855 56.0697 22.1457 55.4572 22.1457 54.7748ZM27.7074 54.7995C27.7074 54.3309 27.6088 53.9239 27.4115 53.5786C27.2224 53.2333 26.9716 52.9702 26.6592 52.7894C26.3468 52.6085 26.0097 52.5181 25.648 52.5181C25.2863 52.5181 24.9492 52.6085 24.6368 52.7894C24.3244 52.962 24.0695 53.221 23.8722 53.5663C23.6831 53.9034 23.5885 54.3062 23.5885 54.7748C23.5885 55.2434 23.6831 55.6545 23.8722 56.008C24.0695 56.3615 24.3244 56.6328 24.6368 56.8219C24.9574 57.0028 25.2945 57.0932 25.648 57.0932C26.0097 57.0932 26.3468 57.0028 26.6592 56.8219C26.9716 56.6411 27.2224 56.378 27.4115 56.0327C27.6088 55.6792 27.7074 55.2681 27.7074 54.7995ZM39.2194 49.6324V50.7793H35.5814V53.3073H38.4178V54.4542H35.5814V58.2031H34.1756V49.6324H39.2194ZM41.9281 49.0774V58.2031H40.5222V49.0774H41.9281ZM46.7212 58.3141C46.0799 58.3141 45.5003 58.1702 44.9824 57.8825C44.4644 57.5865 44.0575 57.1755 43.7615 56.6493C43.4655 56.1149 43.3176 55.4983 43.3176 54.7995C43.3176 54.1089 43.4696 53.4964 43.7738 52.962C44.078 52.4276 44.4932 52.0166 45.0194 51.7288C45.5455 51.4411 46.1334 51.2972 46.7828 51.2972C47.4323 51.2972 48.0202 51.4411 48.5463 51.7288C49.0725 52.0166 49.4877 52.4276 49.7919 52.962C50.096 53.4964 50.2481 54.1089 50.2481 54.7995C50.2481 55.4901 50.0919 56.1026 49.7795 56.637C49.4671 57.1713 49.0396 57.5865 48.497 57.8825C47.9626 58.1702 47.3707 58.3141 46.7212 58.3141ZM46.7212 57.0932C47.0829 57.0932 47.42 57.0069 47.7324 56.8343C48.053 56.6616 48.312 56.4027 48.5093 56.0574C48.7066 55.7121 48.8053 55.2928 48.8053 54.7995C48.8053 54.3062 48.7108 53.891 48.5217 53.554C48.3326 53.2087 48.0818 52.9497 47.7694 52.777C47.457 52.6044 47.1199 52.5181 46.7582 52.5181C46.3964 52.5181 46.0594 52.6044 45.747 52.777C45.4428 52.9497 45.2002 53.2087 45.0194 53.554C44.8385 53.891 44.7481 54.3062 44.7481 54.7995C44.7481 55.5312 44.933 56.0985 45.303 56.5013C45.6812 56.8959 46.1539 57.0932 46.7212 57.0932ZM60.7636 51.4082L58.6548 58.2031H57.175L55.8061 53.184L54.4373 58.2031H52.9574L50.8363 51.4082H52.2668L53.685 56.8713L55.1279 51.4082H56.5954L57.9766 56.8466L59.3824 51.4082H60.7636ZM74.0447 49.6324V58.2031H72.6388V52.3331L70.0245 58.2031H69.0502L66.4235 52.3331V58.2031H65.0177V49.6324H66.5345L69.5435 56.3533L72.5402 49.6324H74.0447ZM75.4239 54.7748C75.4239 54.0925 75.5636 53.4882 75.8431 52.962C76.1309 52.4359 76.5173 52.0289 77.0024 51.7411C77.4956 51.4452 78.0382 51.2972 78.6302 51.2972C79.1646 51.2972 79.6291 51.4041 80.0237 51.6178C80.4265 51.8234 80.7472 52.0823 80.9856 52.3947V51.4082H82.4038V58.2031H80.9856V57.1919C80.7472 57.5125 80.4224 57.7797 80.0114 57.9935C79.6003 58.2072 79.1317 58.3141 78.6055 58.3141C78.0218 58.3141 77.4874 58.1661 77.0024 57.8702C76.5173 57.566 76.1309 57.1467 75.8431 56.6123C75.5636 56.0697 75.4239 55.4572 75.4239 54.7748ZM80.9856 54.7995C80.9856 54.3309 80.8869 53.9239 80.6896 53.5786C80.5005 53.2333 80.2498 52.9702 79.9374 52.7894C79.625 52.6085 79.2879 52.5181 78.9261 52.5181C78.5644 52.5181 78.2273 52.6085 77.9149 52.7894C77.6025 52.962 77.3476 53.221 77.1503 53.5663C76.9612 53.9034 76.8667 54.3062 76.8667 54.7748C76.8667 55.2434 76.9612 55.6545 77.1503 56.008C77.3476 56.3615 77.6025 56.6328 77.9149 56.8219C78.2356 57.0028 78.5726 57.0932 78.9261 57.0932C79.2879 57.0932 79.625 57.0028 79.9374 56.8219C80.2498 56.6411 80.5005 56.378 80.6896 56.0327C80.8869 55.6792 80.9856 55.2681 80.9856 54.7995ZM87.6786 51.2972C88.213 51.2972 88.6898 51.4082 89.1091 51.6302C89.5366 51.8521 89.8696 52.181 90.108 52.6167C90.3464 53.0525 90.4656 53.5786 90.4656 54.1952V58.2031H89.0721V54.4049C89.0721 53.7965 88.92 53.332 88.6158 53.0113C88.3116 52.6825 87.8965 52.5181 87.3703 52.5181C86.8441 52.5181 86.4248 52.6825 86.1124 53.0113C85.8082 53.332 85.6562 53.7965 85.6562 54.4049V58.2031H84.2503V51.4082H85.6562V52.1851C85.8863 51.9056 86.1782 51.6877 86.5317 51.5315C86.8935 51.3753 87.2758 51.2972 87.6786 51.2972ZM91.7903 54.7748C91.7903 54.0925 91.93 53.4882 92.2096 52.962C92.4973 52.4359 92.8837 52.0289 93.3688 51.7411C93.862 51.4452 94.4047 51.2972 94.9966 51.2972C95.531 51.2972 95.9955 51.4041 96.3901 51.6178C96.793 51.8234 97.1136 52.0823 97.352 52.3947V51.4082H98.7702V58.2031H97.352V57.1919C97.1136 57.5125 96.7888 57.7797 96.3778 57.9935C95.9667 58.2072 95.4981 58.3141 94.9719 58.3141C94.3882 58.3141 93.8538 58.1661 93.3688 57.8702C92.8837 57.566 92.4973 57.1467 92.2096 56.6123C91.93 56.0697 91.7903 55.4572 91.7903 54.7748ZM97.352 54.7995C97.352 54.3309 97.2534 53.9239 97.056 53.5786C96.8669 53.2333 96.6162 52.9702 96.3038 52.7894C95.9914 52.6085 95.6543 52.5181 95.2926 52.5181C94.9308 52.5181 94.5937 52.6085 94.2813 52.7894C93.9689 52.962 93.7141 53.221 93.5168 53.5663C93.3277 53.9034 93.2331 54.3062 93.2331 54.7748C93.2331 55.2434 93.3277 55.6545 93.5168 56.008C93.7141 56.3615 93.9689 56.6328 94.2813 56.8219C94.602 57.0028 94.939 57.0932 95.2926 57.0932C95.6543 57.0932 95.9914 57.0028 96.3038 56.8219C96.6162 56.6411 96.8669 56.378 97.056 56.0327C97.2534 55.6792 97.352 55.2681 97.352 54.7995ZM103.354 51.2972C103.881 51.2972 104.345 51.4041 104.748 51.6178C105.159 51.8234 105.48 52.0823 105.71 52.3947V51.4082H107.128V58.3141C107.128 58.9389 106.996 59.4939 106.733 59.9789C106.47 60.4722 106.088 60.8586 105.587 61.1381C105.093 61.4177 104.501 61.5574 103.811 61.5574C102.89 61.5574 102.125 61.3396 101.517 60.9038C100.909 60.4763 100.563 59.8926 100.481 59.1527H101.875C101.981 59.5062 102.208 59.7898 102.553 60.0036C102.906 60.2256 103.326 60.3366 103.811 60.3366C104.378 60.3366 104.834 60.1639 105.18 59.8186C105.533 59.4733 105.71 58.9718 105.71 58.3141V57.1796C105.471 57.5002 105.147 57.7715 104.736 57.9935C104.333 58.2072 103.872 58.3141 103.354 58.3141C102.762 58.3141 102.22 58.1661 101.727 57.8702C101.242 57.566 100.855 57.1467 100.567 56.6123C100.288 56.0697 100.148 55.4572 100.148 54.7748C100.148 54.0925 100.288 53.4882 100.567 52.962C100.855 52.4359 101.242 52.0289 101.727 51.7411C102.22 51.4452 102.762 51.2972 103.354 51.2972ZM105.71 54.7995C105.71 54.3309 105.611 53.9239 105.414 53.5786C105.225 53.2333 104.974 52.9702 104.662 52.7894C104.349 52.6085 104.012 52.5181 103.65 52.5181C103.289 52.5181 102.952 52.6085 102.639 52.7894C102.327 52.962 102.072 53.221 101.875 53.5663C101.685 53.9034 101.591 54.3062 101.591 54.7748C101.591 55.2434 101.685 55.6545 101.875 56.008C102.072 56.3615 102.327 56.6328 102.639 56.8219C102.96 57.0028 103.297 57.0932 103.65 57.0932C104.012 57.0932 104.349 57.0028 104.662 56.8219C104.974 56.6411 105.225 56.378 105.414 56.0327C105.611 55.6792 105.71 55.2681 105.71 54.7995ZM115.202 54.6392C115.202 54.894 115.186 55.1242 115.153 55.3298H109.961C110.002 55.8724 110.204 56.3081 110.565 56.637C110.927 56.9658 111.371 57.1302 111.897 57.1302C112.654 57.1302 113.188 56.8137 113.5 56.1807H115.017C114.812 56.8055 114.438 57.3193 113.895 57.7222C113.361 58.1168 112.695 58.3141 111.897 58.3141C111.248 58.3141 110.664 58.1702 110.146 57.8825C109.636 57.5865 109.234 57.1755 108.938 56.6493C108.65 56.1149 108.506 55.4983 108.506 54.7995C108.506 54.1007 108.646 53.4882 108.925 52.962C109.213 52.4276 109.612 52.0166 110.121 51.7288C110.639 51.4411 111.231 51.2972 111.897 51.2972C112.538 51.2972 113.11 51.437 113.611 51.7165C114.113 51.996 114.503 52.3906 114.783 52.9004C115.062 53.4019 115.202 53.9815 115.202 54.6392ZM113.735 54.1952C113.726 53.6773 113.542 53.2621 113.18 52.9497C112.818 52.6373 112.37 52.4811 111.836 52.4811C111.351 52.4811 110.935 52.6373 110.59 52.9497C110.245 53.2539 110.039 53.6691 109.973 54.1952H113.735ZM117.992 52.3947C118.197 52.0494 118.468 51.7823 118.805 51.5932C119.151 51.3959 119.558 51.2972 120.026 51.2972V52.7524H119.669C119.118 52.7524 118.699 52.8921 118.411 53.1717C118.131 53.4512 117.992 53.9362 117.992 54.6268V58.2031H116.586V51.4082H117.992V52.3947Z" fill="#444444"/>
<path d="M5.92742 0.0605469H17.0002C19.8802 0.0605469 22.3515 0.32412 24.4103 0.855085C26.4691 1.38605 28.339 2.3754 30.02 3.83078C34.3881 7.53608 36.5742 13.1666 36.5742 20.7262C36.5742 23.2206 36.3544 25.4972 35.9149 27.56C35.4754 29.6189 34.8007 31.4754 33.8831 33.1294C32.9655 34.7834 31.7934 36.2617 30.3631 37.5681C29.2373 38.5689 28.0074 39.3749 26.6735 39.9785C25.3395 40.582 23.9014 41.0098 22.3669 41.2543C20.8325 41.4988 19.1014 41.621 17.1737 41.621H6.09706C4.55104 41.621 3.3867 41.388 2.60791 40.9258C1.82526 40.4636 1.31634 39.8104 1.0773 38.97C0.838268 38.1296 0.71875 37.0371 0.71875 35.6963V5.21741C0.71875 3.40296 1.12742 2.08891 1.94863 1.27527C2.76983 0.461636 4.0961 0.0605469 5.92742 0.0605469ZM9.21995 6.72244V34.9324H15.6585C17.0696 34.9324 18.1761 34.8942 18.978 34.8178C19.78 34.7414 20.6089 34.5542 21.4686 34.2524C22.3284 33.9507 23.0725 33.5266 23.7009 32.9766C26.5424 30.5968 27.965 26.4942 27.965 20.6727C27.965 16.5701 27.3404 13.4989 26.0913 11.4591C24.8421 9.41929 23.3 8.11671 21.4686 7.559C19.6373 7.0013 17.4243 6.72244 14.8296 6.72244H9.21995Z" fill="#FF7A00"/>
<path d="M93.5993 35.3563L86.8755 8.87678V37.568C86.8755 39.1571 86.5169 40.3451 85.8037 41.1396C85.0904 41.9342 84.1381 42.3314 82.9584 42.3314C81.7786 42.3314 80.8803 41.938 80.1555 41.1549C79.4306 40.3718 79.0682 39.1762 79.0682 37.568V4.67871C79.0682 2.86426 79.5463 1.6419 80.4986 1.00779C81.4509 0.373692 82.7386 0.0566406 84.3617 0.0566406H86.995C88.5796 0.0566406 89.7285 0.197977 90.4417 0.480649C91.155 0.763321 91.687 1.27519 92.0302 2.01243C92.3733 2.74967 92.7627 3.94911 93.2022 5.61459L99.2976 28.3812L105.393 5.61459C105.833 3.95293 106.222 2.74967 106.565 2.01243C106.908 1.27519 107.436 0.763321 108.154 0.480649C108.871 0.197977 110.02 0.0566406 111.6 0.0566406H114.234C115.857 0.0566406 117.141 0.373692 118.097 1.00779C119.049 1.6419 119.527 2.86426 119.527 4.67871V37.5642C119.527 39.1533 119.168 40.3413 118.455 41.1358C117.742 41.9303 116.782 42.3276 115.579 42.3276C114.453 42.3276 113.528 41.9303 112.803 41.1358C112.078 40.3413 111.716 39.1494 111.716 37.5642V8.87678L104.992 35.3563C104.553 37.0752 104.194 38.3396 103.92 39.1418C103.643 39.944 103.134 40.6774 102.39 41.3382C101.646 41.9991 100.616 42.3314 99.2976 42.3314C98.3068 42.3314 97.4663 42.1175 96.78 41.6935C96.0938 41.2695 95.5579 40.7232 95.1762 40.0624C94.7945 39.4016 94.4938 38.6681 94.274 37.866C94.0543 37.0638 93.8306 36.2272 93.6032 35.3563H93.5993Z" fill="#FF7A00"/>
<path d="M52.3635 37.4354V21.7432C52.3635 19.431 50.4717 17.5566 48.138 17.5566H48.1341C45.8004 17.5566 43.9086 19.431 43.9086 21.7432V37.4354C43.9086 39.7476 45.8004 41.622 48.1341 41.622H48.138C50.4717 41.622 52.3635 39.7476 52.3635 37.4354Z" fill="#FF7A00"/>
<path d="M48.1203 8.37695L68.9859 8.37695C71.3196 8.37695 73.2114 6.50255 73.2114 4.19035V4.18653C73.2114 1.87433 71.3196 -7.72476e-05 68.9859 -7.72476e-05L48.1203 -7.72476e-05C45.7866 -7.72476e-05 43.8948 1.87433 43.8948 4.18653V4.19035C43.8948 6.50255 45.7866 8.37695 48.1203 8.37695Z" fill="#FF7A00"/>
<path d="M48.1203 25.9492L68.9859 25.9492C71.3196 25.9492 73.2114 24.0748 73.2114 21.7626V21.7588C73.2114 19.4466 71.3196 17.5722 68.9859 17.5722L48.1203 17.5722C45.7866 17.5722 43.8948 19.4466 43.8948 21.7588V21.7626C43.8948 24.0748 45.7866 25.9492 48.1203 25.9492Z" fill="#FF7A00"/>
<path d="M23.0892 20.9934C23.0892 19.3057 21.7083 17.9375 20.0049 17.9375C18.3014 17.9375 16.9205 19.3057 16.9205 20.9934C16.9205 22.6812 18.3014 24.0493 20.0049 24.0493C21.7083 24.0493 23.0892 22.6812 23.0892 20.9934Z" fill="#FF7A00"/>
<path d="M36.5851 20.9934C36.5851 19.3057 35.2042 17.9375 33.5007 17.9375C31.7973 17.9375 30.4164 19.3057 30.4164 20.9934C30.4164 22.6812 31.7973 24.0493 33.5007 24.0493C35.2042 24.0493 36.5851 22.6812 36.5851 20.9934Z" fill="white"/>
<path d="M30.9932 20.9941H27.9088" stroke="white" stroke-width="1.89723" stroke-miterlimit="10"/>
<path d="M15.4595 22.9043L7.94141 29.9711" stroke="#FF7A00" stroke-width="1.89723" stroke-linecap="round" stroke-linejoin="round"/>
<path d="M15.8761 34.9288V28.3433L18.7368 25.3867" stroke="#FF7A00" stroke-width="1.89723" stroke-linecap="round" stroke-linejoin="round"/>
<path d="M15.4595 18.6938L7.94141 11.627" stroke="#FF7A00" stroke-width="1.89723" stroke-linecap="round" stroke-linejoin="round"/>
<path d="M15.8761 6.66992V13.2554L18.7368 16.212" stroke="#FF7A00" stroke-width="1.89723" stroke-linecap="round" stroke-linejoin="round"/>
</g>
<defs>
<clipPath id="clip0_10262_14201">
<rect width="120" height="64.9802" fill="white"/>
</clipPath>
</defs>
</svg>
